<?xml version="1.0" standalone="no"?>
<!DOCTYPE svg PUBLIC "-//W3C//DTD SVG 20010904//EN"
 "http://www.w3.org/TR/2001/REC-SVG-20010904/DTD/svg10.dtd">
<svg version="1.0" xmlns="http://www.w3.org/2000/svg"
 width="500.000000pt" height="500.000000pt" viewBox="0 0 500.000000 500.000000"
 preserveAspectRatio="xMidYMid meet">
<metadata>
Created by potrace 1.14, written by Peter Selinger 2001-2017
</metadata>
<g transform="translate(0.000000,500.000000) scale(0.100000,-0.100000)"
fill="#000000" stroke="none">
<path d="M3780 3747 c-135 -46 -236 -136 -298 -265 -67 -141 -67 -293 2 -437
86 -180 254 -285 456 -285 109 0 191 24 277 80 306 201 307 646 2 849 -123 82
-300 106 -439 58z m185 -167 c3 -5 1 -26 -4 -47 -6 -20 -9 -38 -8 -39 1 -1 12
-4 23 -8 19 -6 23 -1 33 40 9 35 15 44 27 40 9 -3 20 -6 26 -6 6 0 7 -11 3
-27 -3 -16 -8 -37 -11 -48 -4 -16 2 -23 30 -33 78 -28 103 -119 47 -171 l-29
-27 24 -27 c28 -33 31 -75 8 -123 -23 -47 -62 -66 -132 -63 l-57 3 -9 -43 c-8
-38 -12 -42 -35 -39 -14 2 -25 8 -24 13 1 6 4 26 8 46 5 29 3 38 -10 43 -25 9
-32 0 -40 -45 -5 -30 -11 -39 -22 -35 -8 3 -21 6 -28 6 -11 0 -12 7 -4 32 17
60 13 66 -45 79 l-53 12 11 29 c9 24 16 29 40 26 18 -2 32 3 37 12 16 27 68
252 62 267 -3 8 -18 17 -34 20 -25 5 -28 9 -22 32 3 14 6 27 7 28 2 2 63 -11
92 -21 19 -6 23 -1 33 39 8 34 16 45 31 45 10 0 22 -4 25 -10z"/>
<path d="M3935 3418 c-14 -44 -25 -101 -20 -106 3 -4 32 -7 63 -7 50 0 57 3
71 27 14 25 14 28 -4 48 -30 34 -103 59 -110 38z"/>
<path d="M3880 3200 c-7 -33 -10 -63 -7 -67 10 -9 103 -16 131 -9 33 8 44 47
22 81 -13 20 -93 55 -126 55 -4 0 -13 -27 -20 -60z"/>
<path d="M728 2927 c-63 -22 -162 -81 -189 -113 -13 -15 0 -35 84 -129 l44
-49 33 27 c108 92 240 90 240 -3 0 -57 -41 -112 -221 -295 l-179 -182 0 -86 0
-87 335 0 335 0 0 105 0 105 -172 0 -173 0 112 105 c169 159 216 240 215 372
-1 115 -72 201 -196 238 -75 22 -188 19 -268 -8z"/>
<path d="M1534 2939 c-102 -29 -180 -125 -211 -258 -21 -92 -23 -307 -4 -395
47 -215 184 -317 382 -285 164 26 245 134 270 359 18 155 -5 329 -55 429 -33
64 -106 127 -169 146 -55 16 -164 18 -213 4z m149 -217 c28 -30 39 -127 35
-287 -3 -108 -9 -160 -20 -187 -27 -60 -84 -63 -115 -5 -13 25 -18 67 -21 193
-6 227 14 304 78 304 15 0 34 -8 43 -18z"/>
<path d="M3026 2935 c-112 -32 -176 -110 -176 -215 1 -71 26 -127 85 -184 46
-44 47 -44 24 -56 -12 -7 -41 -30 -65 -52 -55 -50 -79 -117 -71 -198 14 -155
127 -234 337 -233 161 0 266 49 314 145 60 120 21 237 -107 323 l-49 33 29 16
c42 21 98 87 113 131 7 20 10 65 8 101 -5 80 -39 126 -122 168 -52 26 -70 30
-165 33 -70 1 -123 -2 -155 -12z m186 -192 c28 -26 23 -70 -13 -104 -17 -16
-35 -29 -41 -29 -5 0 -23 13 -39 29 -52 53 -30 121 39 121 20 0 44 -7 54 -17z
m-13 -387 c47 -35 60 -56 61 -97 0 -53 -28 -74 -100 -74 -74 0 -100 20 -100
78 0 34 6 46 40 79 23 21 47 38 53 38 7 0 28 -11 46 -24z"/>
<path d="M2233 2657 l-193 -282 0 -92 0 -93 185 0 185 0 0 -90 0 -90 125 0
125 0 0 90 0 90 50 0 50 0 0 95 0 95 -50 0 -50 0 0 280 0 280 -117 0 -118 -1
-192 -282z m177 -167 l0 -110 -71 0 -71 0 21 33 c12 17 43 67 69 109 26 43 48
77 50 78 1 0 2 -49 2 -110z"/>
</g>
</svg>
